<?xml version="1.0" encoding="utf-8"?>
<!-- Generator: Adobe Illustrator 22.1.0, SVG Export Plug-In . SVG Version: 6.00 Build 0)  -->
<svg version="1.1" id="Layer_1" xmlns="http://www.w3.org/2000/svg" xmlns:xlink="http://www.w3.org/1999/xlink" x="0px" y="0px"
	 viewBox="0 0 1000 1900" style="enable-background:new 0 0 1000 1900;" xml:space="preserve">
<g>
	<path d="M498.9,110c-7,11-13,22.7-18.5,34.5c-4.4,9.5,0.1,14.6,10.1,16.4c19.8,3.5,36.1-6.7,48.5-18.1c28.8-26.6,62.4-48.7,82.7-84
		c11.1-19.3,25.1-37,30.6-58.8h-4.4c-1.1,2.1-2.2,4.1-3.2,6.2c-20,41.8-45,79.2-89.1,99c-6.2,2.8-16.7,4.6-20.5,1.3
		c-4.1-3.5-5.9-14.9-3.3-20.4c11.7-25,25.5-48.9,38-73.5c2.1-4.2,4.2-8.4,6.1-12.6h-6.5C545.9,36.6,522.2,73.2,498.9,110z"/>
	<path d="M602.7,4.8c0.2-1.6,0.4-3.2,0.7-4.8h-6.3c-3.7,11.4-7.2,22.8-10.4,34.3c-1.7,6-1.3,12.6-1.9,18.9
		c6.3-2.6,13.8-3.9,18.8-8.1c15-12.7,25.8-28.1,33.8-45.1h-8.7c-2.6,4.7-5.4,9.2-8.5,13.5c-3,4.2-9.7,5.7-14.8,8.4
		C604.4,16.2,602,10.3,602.7,4.8z"/>
	<path d="M512.2,3.1c-3.5,11.5-6.1,23.3-10.5,34.4C480.6,91,442,131.6,402.5,171.7c-28.3,28.7-55.9,58-83.2,87.6
		c-3.4,3.7-3.2,10.8-4.7,16.3c6.4,0.8,13.3,3.6,19,2.1c10.5-2.8,20.3-8.3,30.5-12.3c22.3-8.7,45.5-15.4,66.7-26.1
		c28.9-14.6,57.2-30.8,83.9-49.1c27.2-18.8,54.1-38.9,77.3-62.3c19.9-20.2,35.6-45,50.5-69.4c8.8-14.3,12.3-31.9,18.2-48
		c-4.5,7.7-9.5,15.2-13.5,23.1c-20.5,41.1-49.3,75.6-85.3,103.6c-48.5,37.8-103.3,63.9-161,84.3c-4.3,1.5-13-0.1-14.9-3.3
		c-2.2-3.5-0.6-11.4,2.2-15.5c3.6-5.4,10.7-8.3,15-13.3c14.8-17.4,28.4-35.8,43.7-52.8c30.9-34.4,55.9-71.9,69-116.9
		c1.9-6.6,4.2-13.1,6.6-19.6h-9.2C512.8,1,512.5,2,512.2,3.1z"/>
	<path d="M465,64.7c-30.4,51.6-73.7,91.2-117.4,130.5c-47.1,42.4-96.6,82.3-136.6,132.1c-25.9,32.3-48.2,66.4-55.9,107.9
		c-1.1,5.8,0.7,15,4.6,17.9c4,3,13,1.7,18.6-0.6c7.5-3.2,14.1-8.9,20.7-14c21.9-16.9,42.5-36,65.8-50.7
		c30.4-19.2,63.3-34.3,94.4-52.6c34.3-20.2,68.7-40.6,101.3-63.4c40-27.9,80.1-56.2,116.8-88.2c44.4-38.7,77.2-87,98.1-142.7
		c5.1-13.6,10.1-27.3,15.1-41h-8c-3.7,8.9-7.5,17.7-11.7,26.3c-24.7,51.1-56.8,98-101.2,132.9c-48.1,37.8-99.2,72.7-152.1,103.4
		C352.1,300.9,287.8,341,225.1,384c-9.8,6.7-20.2,17.5-33.9,9.5c-7.8-4.6-3.4-22.2,6.8-37.2c29.8-43.7,67.6-79.8,106.8-114.8
		c41.5-37,82.1-75.2,121.5-114.4c22.3-22.1,43.7-46.5,52-77.8c4.3-16.2,7.1-32.7,9.6-49.3h-2.9C481.9,22.4,477.1,44.2,465,64.7z"/>
	<path d="M19.9,984.4c11.9-29.1,22.9-59.7,17.7-91.8C32.3,859.6,23,827.4,16,794.7c-5.7-26.3-9.8-53-16-79.1v101.7
		c2,17.7,4.8,35.1,3,52.8c-0.7,6.8-1.7,13.5-3,20.2V1026C7,1012.3,14.1,998.6,19.9,984.4z"/>
	<path d="M129.4,1508.7c21-80.5,53.5-157,93.1-230.1c30-55.2,65.8-106.4,122.1-139.1c5.2-3,9.4-7.6,14.1-11.4
		c-0.8-1.4-1.5-2.9-2.3-4.3c-16.3-1.9-29.9,5.3-43.1,14c-39.7,26-67.8,63.3-91.6,102.6c-53.6,88.2-98.4,180.7-118.1,283.3
		c-14.2,73.7-15,147,6.3,219.6c1.6,5.5,5.2,10.4,7.8,15.6c1.6-0.8,3.3-1.6,4.9-2.3c-3.6-14.6-8.2-29-10.5-43.8
		C101.2,1643.5,112,1575.4,129.4,1508.7z"/>
	<path d="M601.4,928.7c39.8-60.5,60.6-129.1,84.4-196.5c21.2-59.9,46.9-117.9,80-172.7c-0.6,2.1-0.9,4.4-2,6.4
		c-39.1,74.2-68.6,152.2-95.3,231.5c-7.3,21.7-15.3,43.2-23,64.8c7.1-13.7,15.2-27,20.7-41.3c19.6-50.9,36.9-102.8,57.5-153.3
		c41-100.6,99.1-192,159.4-281.8c35-52.1,65.2-107.4,92-164.1c9-18.9,17.2-38.2,24.8-57.7v-15.7c-3.7,4.1-6.4,9.4-8.9,14.4
		c-16.7,33.5-33.4,66.9-50,100.4c-0.7,1.5-1.8,3.1-3.4,3.1c-1.4-0.1-2.4-1.5-2.5-2.9c-0.1-1.4,0.5-2.7,1-4
		c8-17.9,15.9-35.8,24.8-53.2c6.9-13.5,14.4-26.7,20.9-40.3c6.2-13,11.6-26.3,15.7-40.1c0.7-2.5,1.6-5,2.4-7.5V51.2
		c-24.5,52.4-48.8,104.9-77.2,155.1c-26.6,47.2-60.3,90.9-93.8,133.8c-40.4,51.7-83.2,101.5-126.4,150.9
		c-25.2,28.8-52.7,55.7-80.2,82.3c-4.6,4.5-11.8,6.5-18.1,6c-17.9-1.2-9.2-28-5.3-36.9c9.1-21,18.6-42.3,32.9-60.3
		c58.6-74.1,120.6-145.5,179.3-219.5c36.8-46.4,70.2-95.5,91.8-151.6c11.7-30.2,26.3-59.2,39.1-89c3-6.9,4.2-14.6,6-22h-0.5
		c-7.8,16.2-15.3,32.5-23.5,48.4c-17.7,34.4-33.4,70.2-54.4,102.5c-21,32.3-46.2,62.1-71.7,91.1c-47.8,54.4-97.4,107.2-145.8,161.1
		c-30.1,33.5-60.8,66.7-88.6,102.2c-36,45.9-59.6,98.5-64.5,156.8c-2.7,32.3-2.4,66.6,18.1,95.5c14.9,21.1,40,28.1,63.8,18.9
		c33.2-12.9,34.7-12,29.5,24.1c-6.4,44.7-26.6,83-53.7,118.7c-34.8,45.9-81.2,71.6-136.1,84.7c-10.7,2.5-21.3,6.1-31.3,10.5
		c-4,1.8-10.7,4.9-12,9.6c-4.4,14.7,31.9,11,38.6,11.2c18.8,0.4,38.2,0.1,56-6.8c4.4-1.7,8.6-3.8,12.6-6.2
		c17.2-10.4,32.9-23.7,47.6-37.5c18.9-17.7,37.4-36.2,53.7-56.3c9.9-12.3,15.2-28.3,22.9-42.4c4.1-7.6,10.1-14.4,13.3-22.4
		c16.3-41.3,31.2-83.1,47.9-124.2c21.5-52.7,41.2-106.5,67.5-156.8c28.6-54.7,63.5-106.1,96.3-158.6c5.6-9,13.9-16.2,21-24.3
		c3.1-5.2,6.3-10.5,9.4-15.7c-3.1,5.2-6.3,10.5-9.4,15.7c-39.4,65.2-83.1,128.3-117,196.2c-32.4,65.1-55.7,134.8-81,203.2
		c-25.8,69.7-56.3,136.1-111.6,188c-40.9,38.4-86.9,63.6-145.5,60.3c-20.8-1.2-41.8,2.9-62.8,4.5c-7.8,0.6-15.8,1.6-23.6,0.6
		c-4.5-0.6-10.1-3.6-12.4-7.3c-5.8-9.3,22.6-21.1,27.3-23.7c15.9-9,32-17.7,48.8-24.7c31.5-13.1,66.2-16,96.1-33.1
		c43.8-25,94.5-83.9,51.5-132.4c-43.4-48.9-47.8-106.7-41.9-167.3c7.6-78.5,46.6-142.1,98.5-198.4c51.3-55.6,105-109.1,157-164
		c55.5-58.6,104.4-122.6,141.3-194.5C896.9,73.3,908.8,36.2,922.4,0H913c-8.9,21.6-17.8,43.1-27.6,64.2
		c-10.1,21.8-20,45.1-35.6,62.7c-72,80.9-137,168-219,240.2c-51.5,45.3-101.5,93.2-141.2,149.9c-37.8,54.1-61.1,113.5-59.5,180.8
		c1.1,44.5,2.6,88.9,2.9,133.4c0.1,18.8-1,37.9-3.8,56.4c-3,19.2-15.9,33.4-31.3,43.8c-39.9,27-82.3,48.8-131.5,52.1
		c-25.1,1.7-42.5,15.6-55.7,34.2c-26.2,36.9-39.9,79.6-50.5,123c-1.4,5.6-0.5,11.4,0.1,17c0.4,4,0.8,9.3,4.7,11.4
		c4.4,2.3,9.9-0.8,13.7-3c6-3.4,12.4-6.4,17.7-10.7c5.6-4.5,11.5-8.9,17.3-13.3c11.7-9.2,23.4-18.4,35.5-27.1
		c42.2-29.9,90.1-44,141-49.3c20.8-2.2,41.6-5.2,62.4-7.8c-13.8,3.7-27.4,9.7-41.3,10.7c-42.9,2.9-84.5,9.6-122.9,30.3
		c-34.6,18.7-64.2,43.4-90,73c-19,21.8-38.4,43.2-58,64.4c-2.4,2.6-7.9,4.9-10.6,3.9c-3-1.1-6.3-6.3-6.3-9.7c0-9.9,0.7-20,2.7-29.7
		c14.4-71.9,35.3-141.7,70.8-206.4c17.4-31.7,33.3-39,59.6-33.7c59.7,12.1,126.6-33.9,137.9-74.8c8.6-31.3,12.2-65.1,11.5-97.6
		C404,705.4,403,622.7,446,547.9c16.1-28,35.1-55.3,57-78.9c36.7-39.7,77.6-75.4,115.3-114.2c43.9-45.1,88.4-89.9,128.8-138.1
		c25.6-30.6,44.3-67.1,65.7-101.3c3.2-5.1,4.6-11.7,5.3-17.8c3.7-32.5,7.2-65.1,10.5-97.6h-87.7c-13.2,22.1-28.4,42.8-45.9,62.3
		c-12.2,13.5-21.1,29.9-31.6,45c-34.7,49.5-76.5,92.3-125.1,127.9c-65.6,48.2-132.9,94.1-198.4,142.5c-44,32.5-86,67.4-118.4,112.4
		c-21,29.2-37,60.8-49,94.6c-3.5,9.9-6.5,21.9-19.9,20.9c-12.8-1-20.7-9.1-26.1-21.8c-28-65.4-14.5-126.6,17.5-185.8
		c36.7-67.9,93.4-118.1,150.2-168.3c51.5-45.5,106.8-87.5,144.7-146.1c16.3-25.3,27-53,25.9-83.5h-5.9c1.5,36.3-14.6,67-35.8,95.8
		c-26.9,36.5-59.1,67.8-95.3,95.3c-19.1,14.5-36.1,32-53.6,48.5c-41.2,39-84.1,76.5-116.8,123.3c-31.9,45.6-55.1,96.5-53.5,152.2
		c1.2,44,14.6,87.6,22.2,131.5c7.4,42.7,27.8,80,47.6,117.7c1.2,2.3,2.1,4.9,2.5,7.4c0.2,1.3-0.8,2.8-2.2,7.5
		c-9-8.7-16-16.9-24.5-23.4c-6.5-4.9-14.6-7.6-22-11.3c-1.5,8.9-5.5,18.2-4,26.5c6,32.5,14.1,64.7,20.7,97.1
		c10.5,51.4,0.4,100.4-13.8,150.2c-18,63.5-31.6,128.4-45.4,193.1c-16.3,76.2-26,153.3-23.8,231.5c0.3,9,2.6,17.9,4,26.9
		c2,0.2,3.9,0.5,5.9,0.7c5.5-14.7,11.7-29.1,16.3-44c18.9-61.7,47.2-119.2,81.4-173.6c15.8-25.1,35.5-47.9,53.4-71.7
		c-12.6,19.8-24.9,39.8-37.8,59.4c-63.1,95.5-101.4,200.1-117.2,313.3c-0.7,4.9-3.5,9.5-5.3,14.3c-1.6-0.2-3.1-0.4-4.7-0.6
		c-1.7-11.1-4-22.1-4.9-33.2c-6.9-78.3-3-156.5,7-234.2c8.5-66.1,18.6-132.1,30.3-197.8c5.5-30.9,14.8-61.3,24.9-91.2
		c20.3-60.2,18.1-119.6-1.6-179.1c-5.4-16.4-9.4-33.6-17-49c-7.3-14.6-18.4-27.3-27.9-40.9c-2.4,0.4-4.7,0.9-7.1,1.3
		c-0.4,8.4-1.2,16.9-1.2,25.3c0.5,56.6,4.8,113.5,0.3,169.7c-2.5,31.3-17.1,62.7-30.7,92c-12,25.8-21.3,52.3-29,79.2v653.1
		c19.3,42,46.4,80,80.2,114.2c8.2,8.3,17.3,15.8,26.8,22.9h77.2c-1.5-2.1-3.1-4.2-4.8-6.1c-59-67.5-90.2-145.1-93.7-235
		c-4.3-108.9,16.8-212.3,65.3-309.3c25.3-50.6,53.8-100,85.3-147c25.1-37.4,57.6-69.8,101-87.5c29.2-11.9,61.1-12,92-10.5
		c3.6,0.2,7,4.4,4.1,7.4c-1.1,1.2-2.8,1.9-4.3,2.5c-5.4,2.3-10.5,5.9-15.7,8.7c-6.1,3.3-12.3,6.5-18.7,9
		c-43.9,17-84.1,39.6-111.4,79c-21.5,31-42.8,62.5-59.8,96.1c-40.6,80.4-73.9,163.8-91.1,252.8c-10.2,53.1-14,106.7-1.5,159.6
		c11,46.6,32.2,88.4,76.3,112.7c42.1,23.2,85.1,19,123.7-7c41.2-27.8,81.5-57.7,118.9-90.4c43.9-38.3,88.8-38.5,138.6-15.8
		c34.8,15.9,70.1,31,109.5,32.4c9.3,0.3,18.6,3.5,27.6,6.2c17.8,5.3,24.1,16.5,24,35.1c-0.2,36.4-5,72-13,107.1h133.6
		c6.4-32,12.8-63.9,19.2-95.9c3.8-18.9,7.6-37.9,11.4-56.8c3.3-16.6,8.8-35.1,2.8-51.8c-5.8-16.1-16.8-28.9-29.2-40.5
		c-21.9-20.4-48-37-66.7-59.8c-29.2-35.5-55.6-73.7-65.3-120.5c-12-57.7-8.1-115.7-3.5-173.7c3.3-42,4.7-83.9-3.4-125.5
		c-2-10.2-5.8-20.4-10.8-29.4c-10.9-19.6-26.5-23.9-44.1-9.4c-18,14.8-35.9,31.3-49.1,50.3c-29.9,43.1-57,88.1-84.8,132.7
		c-12.2,19.6-23.6,39.7-34.7,59.9c-22.1,40.4-42.7,81.7-66,121.5c-29.1,49.9-58.7,99.6-91.2,147.3c-19.6,28.7-42.5,56-75.6,72.1
		c-28.2,13.7-60.9,5.3-77.2-21.4c-22.3-36.5-23.3-76.9-19.5-117.5c7.5-79.6,30.9-155.5,60.1-229.4c19.2-48.3,41-96.8,79.1-133.1
		c25.8-24.6,57.1-44.1,88-62.5c54.3-32.5,100.8-73.7,142.3-120.7c21.1-23.9,40.2-49.8,59.6-75.2c4-5.3,5.8-12.2,8.6-18.4
		c-1.6-0.9-3.1-1.9-4.7-2.8c-11.3,13.9-21.5,29-34.2,41.5c-17.4,17.2-36.7,32.4-55.1,48.4c14.8-15,30.9-28.8,43.9-45.1
		c16.2-20.3,29.9-42.6,44.6-64.1c-14.2,17.7-28.4,35.4-42.6,53C581.9,958.3,591.7,943.5,601.4,928.7z M914.5,308.4
		c-15.2,22.7-30.5,45.4-45.7,68.1C880.5,351.4,892.7,326.7,914.5,308.4z M428.7,1083.1c-27.1,4.4-54.7,5.7-82.1,8.3
		c-14.8,7.3-29.5,14.6-44.3,21.9c-26.3,22.2-52.6,44.4-78.8,66.5c16.4-25.7,39.2-44.8,64.2-61.5c4.1-2.8,9.7-3.4,14.6-5
		c14.8-7.3,29.5-14.6,44.3-21.9c16.3-3.1,32.6-6.1,48.8-9.3c23.3-4.7,46.5-9.6,69.7-14.4C453,1073,441.3,1081.1,428.7,1083.1z
		 M526.2,1029.3c-4.9,3.1-9.8,6.1-14.6,9.2C516.4,1035.4,521.3,1032.3,526.2,1029.3C526.2,1029.3,526.2,1029.3,526.2,1029.3z"/>
	<path d="M644.9,864.2c0.2-0.6,0.5-1.3,0.7-1.9c-0.3,0.6-0.6,1.2-0.9,1.7c-9.5,17.9-18.9,35.8-28.4,53.7l0,0
		c-0.5,0.8-1.1,1.6-1.6,2.3c0.6-0.7,1.2-1.5,1.8-2.2h0C625.9,899.9,635.4,882,644.9,864.2z"/>
	<path d="M70.9,336.1C40.9,366,18.8,402.3,0,440.4v27c21.6-64.3,61.7-118.2,111.7-165c51.2-48,107.1-91,159.5-137.9
		c30.3-27.1,58.9-55.3,79.3-92.7C363.2,48.6,353.9,16.8,334,0h-83.4c14.1,0.1,28.2,1.3,42.5,4c47.1,9,62.5,52.2,30.7,93.6
		c-35.4,46.2-80.8,82.1-124.3,120.1C155.6,256.1,112,294.9,70.9,336.1z"/>
	<path d="M640.1,1855.8c-34.5,1.9-70,1.1-103,9.6c-33.7,8.7-66.3,21.7-98.9,34.6h213.3c1.4-7.7,2.9-15.5,4.5-23.2
		C658.8,1863.2,652.8,1855.1,640.1,1855.8z"/>
	<path d="M77.2,34c29.2-8.4,58.8-15.7,88.4-22.8c27.1-6.5,54.3-11,81.9-11.2H100.7c-18,3.1-36.1,6.3-54,9.7
		c-15.6,2.9-31.1,6-46.6,9.1v43C24.7,50.5,50.7,41.6,77.2,34z"/>
	<path d="M955.1,616.6c-6.3,20.4-12.2,40.9-18.7,61.2c-3.3,10.1-6.7,20.2-10.5,30.2c-1.3,3.4-3.5,6.1-4.4,9.6
		c-0.6,2.3-1.1,4.7-2.7,6.5c-1.6,1.7-4.7,2.4-6.2,0.6c-1.2-1.4-1-3.4-0.7-5.2c0-10.2,3.5-21.6,5.2-31.7c1.6-10,3.8-19.6,6.1-29.5
		c4.8-20.6,10.1-41.1,15.8-61.5c11.4-40.6,24.6-80.8,39.1-120.5c7-19.4,14.4-38.6,21.9-57.8V200.4c-44,91.9-95.1,179.6-151.4,264.9
		c-59.5,90.2-103.1,188.7-136.4,291.8c-23.2,71.5-48.9,142.4-90.9,205.5c-18.2,27.4-40.6,52.2-62.3,77.1
		c-45.4,52.3-98,96.6-156.9,133c-30.2,18.6-59.7,37.7-81.2,66.3c-13.2,17.5-27.1,35.4-35.7,55.3c-19.6,45.1-36.9,91.3-53.6,137.6
		c-16.8,46.6-24.7,95.5-27.4,144.7c-1.1,20.4,3.1,42,9.5,61.5c6.9,21.1,30.7,26,45.5,9.3c14-15.7,27-34.2,34.2-53.7
		c16.3-44.3,26-91.1,43.6-134.8c20.7-51.5,45.2-101.7,71.1-150.9c44-83.4,105.1-155.4,160.4-231.2c36.5-50,72.3-100.7,103.8-153.8
		c22-37.1,35.5-79.2,53.7-118.6c13-28.1,27.4-55.5,41.5-83.1c7.8-15.3,15-31.4,25.2-44.9c5-6.7,16.4-10.7,25.2-11.2
		c3.4-0.2,10.7,12.3,11,19.2c1.3,39.2,2.3,78.5,1,117.7c-1.5,43.9-5.7,87.7-8.3,131.6c-2.4,41.3-3.9,82.7-6.5,124
		c-3.6,58.1-9.3,116.1-11.4,174.3c-1.9,53.8-8.9,114.3,3.2,167c20.5,88.9,96.2,140.8,144.3,213.8c17.6,26.8,33.5,54.7,48.7,83.1
		v-517.6c-0.6-3.9-1.3-7.9-2-11.8c-9.2-51-19.8-101.8-28.4-152.9c-5.3-31.5-9.2-63.4-12-95.3c-5.7-64-4.9-127.9,2.7-181.1
		c0,21.5,0.5,54-0.1,86.4c-1.6,88.4,11.3,174.8,31.6,260.5c2.6,11.1,5.4,22.2,8.2,33.3V999.5c-0.5-1.4-1-2.8-1.4-4.2
		c-24.6-75.4-31.1-153.2-28.2-231.9c0.7-19.9,2.6-39.8,4.7-59.6c1-9.7,2.2-19.4,3.2-29.1c0.5-4.8,1.1-9.7,1.6-14.5
		c0.3-3.3-0.8-11.6,4.8-10c-1.5,22.5-4.9,44.8-6.5,67.3c-4.5,62-4.7,123.9,12.1,184.5c1.2,4.2,5.1,11.7,9.7,13.7V537.8
		c-1.9,8.6-3.9,17.3-6.2,25.8c-1.6,5.9-2.5,12.7-6.5,17.6c-2.2,2.7-7,7-9.2,2c-1.6-3.6,2.6-11.8,3.8-15.3
		c4.3-12.6,8.6-25.2,12.9-37.8c1.6-4.8,2.8-12,5.3-16.9V473C984.9,520.8,970,568.7,955.1,616.6z M893.8,682.2c0.2-2.2,1.1-9.3,5-7.5
		c0.4,0.2,0.6,0.4,0.9,0.7c1.7,2.3-0.5,8.2-1.1,10.2c-3.5,12.6-6.9,25.2-10.2,37.8C891.8,710,892.4,696.1,893.8,682.2z M919.8,862.9
		c-1.3,14.8-3.5,29.5-6.2,44.1c-3.3,18.4-6.6,37.3-12.5,55.2c-3,8.9-6.4,18.4-11.6,26.3c-4.6,7-10.5-5.6-12.3-9.4
		c-0.6-1.4-1.3-2.8-1.7-4.2c-2.4-7.4-2.7-15.3-2.9-23c-1.2-43.9-1.9-87.8,0.7-131.6c1-16.3,2.4-32.6,4.4-48.8
		c1.8-14.8,2.5-31.4,9.8-44.7c1.2,4.3-0.6,11.3-0.9,16c-0.4,5.6-0.8,11.1-1.2,16.6c-0.8,11.1-1.6,22.2-2.4,33.3
		c-1.6,22.2-3,44.4-4.1,66.6c-0.1,2.9-0.3,5.8-0.4,8.7c-1,21.9,1.4,44,3.3,65.9c0.4,4.4,2.8,9.9,6.1,12.9c1.6,1.5,3.4,2.5,5.7,2
		c3.7-0.8,4.2-5.7,4.9-8.8c1.3-5.4,2.5-10.8,3.8-16.3c3.5-15.3,7.3-30.6,9.9-46.1c2.7-16,4.9-32,7.9-47.9
		C921.6,840.6,920.7,852,919.8,862.9z M891.6,782.3c-1,14.4-1.4,28.8-0.7,43.2c0.1,2.7,0.3,18.9,3.6,24.4c1.4,2.3,3.3,2.7,6-0.6
		c1.5-1.8,2.1-4,2.7-6.2c2.8-10.1,5.1-20.3,7.3-30.6c0.3-1.3,0.6-2.7,1.4-3.8c1.6-2.2,4.6-1.8,5,1c0.3,2.4-2,6.1-2.7,8.4
		c-2.2,6.9-4.2,13.8-5.8,20.9c-2.6,11-5,22.1-7.6,33.1c-1.4,5.8-3.1,19.8-11,9.1c-4.8-6.6-5.5-15.4-5.6-23.3
		c-0.2-22.1,0.6-44.4,2.3-66.4c1.3-15.9,3.2-31.7,5.8-47.3c2.6-15.7,7.6-31.2,9.9-46.9C898.1,725.5,893.6,753.8,891.6,782.3z"/>
	<path d="M87.9,263.8c16.8-18.4,31.3-39,45.9-59.2c3.1-4.3,2.3-11.5,3.3-17.4c-6.9-1.1-14.7-5-20.5-3c-37.2,12.6-74,26.3-110.8,40
		c-2,0.7-3.9,1.5-5.9,2.2v144.4C24.9,331.8,56.6,297.9,87.9,263.8z"/>
</g>
</svg>
