<?xml version="1.0" encoding="utf-8"?>
<!-- Generator: Adobe Illustrator 22.1.0, SVG Export Plug-In . SVG Version: 6.00 Build 0)  -->
<svg version="1.1" id="Layer_2" xmlns="http://www.w3.org/2000/svg" xmlns:xlink="http://www.w3.org/1999/xlink" x="0px" y="0px"
	 viewBox="0 0 313.9 42.3" style="enable-background:new 0 0 313.9 42.3;" xml:space="preserve">
<style type="text/css">
	.st0{fill:url(#SVGID_1_);}
</style>
<linearGradient id="SVGID_1_" gradientUnits="userSpaceOnUse" x1="0" y1="21.1568" x2="313.9224" y2="21.1568">
	<stop  offset="1.331947e-07" style="stop-color:#E81540"/>
	<stop  offset="0.5" style="stop-color:#852BC1"/>
	<stop  offset="1" style="stop-color:#26CCDD"/>
</linearGradient>
<path class="st0" d="M313.9,42.3h-14.7l-10.9-26l-10.9,26h-14.5L281.4,0h14L313.9,42.3z M264.4,0h-14.3v42.3h9.4l4.9-11.2V0z
	 M244.4,7.5c1.6,2.4,2.4,5.2,2.4,8.5c0,3.2-0.8,6-2.4,8.5c-1.6,2.4-3.8,4.3-6.7,5.6c-2.9,1.3-6.3,1.9-10.2,1.9h-6.1v10.4h-14.3V0
	h20.4c3.9,0,7.3,0.6,10.2,1.9C240.6,3.2,242.9,5.1,244.4,7.5z M232.4,16c0-1.6-0.5-2.8-1.5-3.7c-1-0.9-2.4-1.3-4.4-1.3h-5.2v9.9h5.2
	c1.9,0,3.4-0.4,4.4-1.3C231.9,18.7,232.4,17.5,232.4,16z M0,1.9V3V4v2.4v35h30.7V31.1H13.4v-5.3h14.2v-9.9H13.4v-4.8h17.2V0.9H0V1.9
	z M149.2,2.7c-2.8-1.2-6-1.9-9.8-1.9h-23.1h-2h-1.1H81.7h-2.8v0.9v0.8v1.1v1.9v1.1v1.9v1.1v1.1v0.7h11.9v30h6.8h3.4h1.1h1.1h1.3v-30
	l11.9-0.1h17.2h0.8h4.2c1.9,0,3.2,0.4,4.2,1.2c0.9,0.8,1.4,2,1.4,3.5c0,1.5-0.5,2.7-1.4,3.5c-0.9,0.8-2.3,1.2-4.2,1.2h-4.2h-0.8
	h-13.7v20.5h13.7V31.2h3.7l3.8,10.2h14.6l-5.4-12.5c2.5-1.3,4.4-3,5.7-5.2c1.3-2.2,2-4.7,2-7.6c0-3.1-0.8-5.8-2.3-8.1
	C154.2,5.7,152,4,149.2,2.7z M62.1,19.3L46.7,0.9H35.4v40.6h13.3V23l15.4,18.4h11.2V0.9H62.1V19.3z M203.7,21.2
	c0,11.7-9.5,21.2-21.2,21.2s-21.2-9.5-21.2-21.2S170.8,0,182.5,0S203.7,9.5,203.7,21.2z M192.6,21.2c0-0.9-0.8-1.7-1.7-1.7h-6.7
	v-6.7c0-0.9-0.8-1.7-1.7-1.7s-1.7,0.8-1.7,1.7v6.7h-6.7c-0.9,0-1.7,0.8-1.7,1.7s0.8,1.7,1.7,1.7h6.7v6.7c0,0.9,0.8,1.7,1.7,1.7
	s1.7-0.8,1.7-1.7v-6.7h6.7C191.9,22.8,192.6,22.1,192.6,21.2z"/>
</svg>
