<?xml version="1.0" encoding="utf-8"?>
<!-- Generator: Adobe Illustrator 22.1.0, SVG Export Plug-In . SVG Version: 6.00 Build 0)  -->
<svg version="1.1" id="Layer_2" xmlns="http://www.w3.org/2000/svg" xmlns:xlink="http://www.w3.org/1999/xlink" x="0px" y="0px"
	 viewBox="0 0 745.2 122.1" style="enable-background:new 0 0 745.2 122.1;" xml:space="preserve">
<style type="text/css">
	.st0{fill:url(#SVGID_1_);}
	.st1{fill:url(#SVGID_2_);}
	.st2{fill:url(#SVGID_3_);}
	.st3{fill:url(#SVGID_4_);}
	.st4{fill:url(#SVGID_5_);}
	.st5{fill:url(#SVGID_6_);}
	.st6{fill:url(#SVGID_7_);}
	.st7{fill:url(#SVGID_8_);}
	.st8{fill:url(#SVGID_9_);}
	.st9{fill:url(#SVGID_10_);}
	.st10{fill:url(#SVGID_11_);}
</style>
<g>
	<g>
		<linearGradient id="SVGID_1_" gradientUnits="userSpaceOnUse" x1="0" y1="61.059" x2="745.156" y2="61.059">
			<stop  offset="1.331947e-07" style="stop-color:#E81540"/>
			<stop  offset="0.5" style="stop-color:#852BC1"/>
			<stop  offset="1" style="stop-color:#26CCDD"/>
		</linearGradient>
		<path class="st0" d="M456.6,16.1c-0.2-0.1-0.4-0.2-0.5-0.3c-12.2-5.7-24.8-10.2-37.7-13.9c-2.2-0.6-4.5-1.3-6.7-1.9
			c-0.1,0-0.2,0-0.2,0c-0.1,0.3-0.2,0.6-0.4,0.9c-1.3,2.4-2.7,4.7-4,7.1c15.3,4.5,30.4,9.3,44.6,16.4
			C453.3,21.6,454.9,18.9,456.6,16.1z"/>
		<linearGradient id="SVGID_2_" gradientUnits="userSpaceOnUse" x1="0" y1="61.059" x2="745.156" y2="61.059">
			<stop  offset="1.331947e-07" style="stop-color:#E81540"/>
			<stop  offset="0.5" style="stop-color:#852BC1"/>
			<stop  offset="1" style="stop-color:#26CCDD"/>
		</linearGradient>
		<path class="st1" d="M40.5,54.3c-6.2-3.5-29.2-11.2-36.5-12.2c-1.1,2.2-2.2,4.5-3.3,6.7c-0.2,0.4-0.5,0.7-0.7,1.1
			c0,0.2,0,0.3,0,0.5c12.5,2.9,24.7,7.1,36.5,12.4C37.9,59.9,39.2,57.1,40.5,54.3z"/>
		<linearGradient id="SVGID_3_" gradientUnits="userSpaceOnUse" x1="0" y1="61.059" x2="745.156" y2="61.059">
			<stop  offset="1.331947e-07" style="stop-color:#E81540"/>
			<stop  offset="0.5" style="stop-color:#852BC1"/>
			<stop  offset="1" style="stop-color:#26CCDD"/>
		</linearGradient>
		<path class="st2" d="M439.6,67.6c11.3-8.9,21.5-18.8,30.7-29.9c0.7-0.8,1.2-1.6,2.4-1.8c0.4-0.1,0.8-0.5,1.4-0.9
			c-2.2-1.6-4.2-3.1-6.2-4.6c-0.8-0.6-1.4-0.9-2.4-0.2c-0.4,0.3-1.1,0.3-1.6,0.3c-24.9,0-49.8,0-74.8,0c-0.5,0-0.9,0-1.5,0
			c0,3,0,5.8,0,8.8c22.7,0,45.4,0,68.1,0c0,0.1,0.1,0.2,0.1,0.3c-22.7,25-51,41.5-82.1,53.7c1.8,2.2,3.7,4.4,5.4,6.7
			c0.5,0.7,0.9,0.8,1.7,0.5c11.2-4.6,22.1-9.9,32.6-16.1c4.9-2.9,9.7-6,14.7-9c0,15.5,0,31,0,46.6c3.3,0,6.5,0,9.7,0
			c0-7.5,0-14.9,0-22.3c0-9.3,0-18.6,0-28c0-0.8,0.1-1.2,1-1.4c0.8-0.2,1.4-1,2.4-1.6c-1-0.3-1.6-0.5-2.3-0.7
			C439.2,67.9,439.4,67.7,439.6,67.6z"/>
		<linearGradient id="SVGID_4_" gradientUnits="userSpaceOnUse" x1="0" y1="61.059" x2="745.156" y2="61.059">
			<stop  offset="1.331947e-07" style="stop-color:#E81540"/>
			<stop  offset="0.5" style="stop-color:#852BC1"/>
			<stop  offset="1" style="stop-color:#26CCDD"/>
		</linearGradient>
		<path class="st3" d="M737.5,43.4c-0.2-0.1-0.6,0-0.9,0.1c-0.7,0.2-1.4,0.5-2.1,0.5c-30.3,0-60.6,0-90.9,0c-0.5,0-0.9,0-1.4,0
			c0,3.2,0,6.2,0,9.3c29.8,0,59.6,0,89.4,0c0,0.3,0,0.5-0.1,0.8c-4.5,16-13,29.3-26.1,39.6c-10.1,7.9-21.5,13.1-33.6,16.8
			c-2.7,0.8-5.4,1.6-8,2.3c1.9,2.6,3.8,5.2,5.7,7.8c0.1,0,0.3,0,0.5-0.1c9.6-2.7,18.9-6.1,27.7-10.7c11.9-6.3,22-14.7,29.9-25.7
			c7-9.8,11.6-20.8,15-32.3c0.5-1.5,0.6-3.2,2.3-4c0.1,0,0.1-0.2,0.3-0.5C742.6,45.9,740,44.6,737.5,43.4z"/>
		<linearGradient id="SVGID_5_" gradientUnits="userSpaceOnUse" x1="0" y1="61.059" x2="745.156" y2="61.059">
			<stop  offset="1.331947e-07" style="stop-color:#E81540"/>
			<stop  offset="0.5" style="stop-color:#852BC1"/>
			<stop  offset="1" style="stop-color:#26CCDD"/>
		</linearGradient>
		<path class="st4" d="M169.1,54.7c-1.7-8.3-3.4-16.4-5.1-24.5c1.1-0.7,2.4-1.1,2.4-2.8c-3.8,0.4-7.5,0.7-11.2,1.1
			c2,9.5,4.1,18.8,6.1,28.1c-10.4,2.3-20.7,4.6-31.1,6.9c0.6,2.6,1.2,5.1,1.8,7.6c10.3-2.4,20.6-4.7,30.8-7
			c4.1,19.2,8.3,38.4,12.4,57.8c2.7-0.6,5.3-1.2,8.1-1.8c-4.2-19.3-8.3-38.5-12.4-57.8c12.6-2.8,25.1-5.6,37.8-8.4
			c-5.1,11-11.8,20.5-20.2,28.7c2.3,1.5,4.5,3,6.9,4.6c0.1-0.1,0.1-0.3,0.3-0.4c9.3-9.7,16.7-20.7,22.2-32.9c0.8-1.8,1-4.1,3.3-5.1
			c-2.3-1.6-4.4-3.1-6.1-4.3C199.4,48.2,184.2,51.3,169.1,54.7z"/>
		<linearGradient id="SVGID_6_" gradientUnits="userSpaceOnUse" x1="0" y1="61.059" x2="745.156" y2="61.059">
			<stop  offset="1.331947e-07" style="stop-color:#E81540"/>
			<stop  offset="0.5" style="stop-color:#852BC1"/>
			<stop  offset="1" style="stop-color:#26CCDD"/>
		</linearGradient>
		<path class="st5" d="M104.2,29.5c-0.9,1.9-1.8,3.8-2.7,5.7c-8.9,18.3-21.2,33.9-37.4,46.4c-12.9,10-27.3,17.4-42.6,23.2
			c-3.1,1.2-6.2,2.3-9.4,3.4c2.6,3.5,5.1,7,7.6,10.5c1.1-0.5,1.7-1.4,1.7-2.5c0-0.8,0.4-1,1.1-1.3c5.9-2.4,11.9-4.7,17.6-7.3
			c15.4-7.1,29.3-16.4,41.5-28.1c10.6-10.2,19.4-21.9,26.3-35c1.6-3,3-6,4.6-9.1c-1.5-1.1-2.9-2-4.3-3
			C106.9,31.6,105.6,30.6,104.2,29.5z"/>
		<linearGradient id="SVGID_7_" gradientUnits="userSpaceOnUse" x1="0" y1="61.059" x2="745.156" y2="61.059">
			<stop  offset="1.331947e-07" style="stop-color:#E81540"/>
			<stop  offset="0.5" style="stop-color:#852BC1"/>
			<stop  offset="1" style="stop-color:#26CCDD"/>
		</linearGradient>
		<path class="st6" d="M244.4,67.3c1.5-0.2,2.7-0.7,3.7-1.7c0.6-0.7,1.2-0.8,2.1-0.8c35,0,70,0,105,0c0.5,0,0.9,0,1.5,0
			c0-3.3,0-6.4,0-9.6c-37.6,0-75.2,0-113,0C243.8,59.2,244.1,63.2,244.4,67.3z"/>
		<linearGradient id="SVGID_8_" gradientUnits="userSpaceOnUse" x1="0" y1="61.059" x2="745.156" y2="61.059">
			<stop  offset="1.331947e-07" style="stop-color:#E81540"/>
			<stop  offset="0.5" style="stop-color:#852BC1"/>
			<stop  offset="1" style="stop-color:#26CCDD"/>
		</linearGradient>
		<path class="st7" d="M510.9,67.1c0.1,0.1,0.2,0.2,0.3,0.4c1.1-0.6,2.3-1.1,3.3-1.9c0.7-0.5,1.2-0.8,2.1-0.8c35,0,70,0,105,0
			c0.5,0,0.9,0,1.4,0c0-3.3,0-6.4,0-9.6c-37.7,0-75.3,0-112.9,0C510.4,59.2,510.6,63.2,510.9,67.1z"/>
		<linearGradient id="SVGID_9_" gradientUnits="userSpaceOnUse" x1="0" y1="61.059" x2="745.156" y2="61.059">
			<stop  offset="1.331947e-07" style="stop-color:#E81540"/>
			<stop  offset="0.5" style="stop-color:#852BC1"/>
			<stop  offset="1" style="stop-color:#26CCDD"/>
		</linearGradient>
		<path class="st8" d="M732.4,9.4c-25.8,0-51.4,0-77.1,0c0,3,0,5.9,0,8.8c25.7,0,51.4,0,77.1,0C732.4,15.3,732.4,12.4,732.4,9.4z"/>
		<linearGradient id="SVGID_10_" gradientUnits="userSpaceOnUse" x1="0" y1="61.059" x2="745.156" y2="61.059">
			<stop  offset="1.331947e-07" style="stop-color:#E81540"/>
			<stop  offset="0.5" style="stop-color:#852BC1"/>
			<stop  offset="1" style="stop-color:#26CCDD"/>
		</linearGradient>
		<path class="st9" d="M465.7,75.1c-4-2.4-8.1-4.6-12.2-6.8c-0.4-0.2-1.1-0.3-1.3-0.1c-2,2.1-3.9,4.2-5.9,6.4
			c13.7,7.5,26.7,15.8,38.9,25.5c2.3-2.4,4.6-4.9,6.9-7.3c-0.4-0.3-0.7-0.6-1-0.8C482.9,85.7,474.4,80.2,465.7,75.1z"/>
		<linearGradient id="SVGID_11_" gradientUnits="userSpaceOnUse" x1="0" y1="61.059" x2="745.156" y2="61.059">
			<stop  offset="1.331947e-07" style="stop-color:#E81540"/>
			<stop  offset="0.5" style="stop-color:#852BC1"/>
			<stop  offset="1" style="stop-color:#26CCDD"/>
		</linearGradient>
		<path class="st10" d="M55.4,21.7c-3.3-1.4-6.6-2.9-9.8-4.2C37.2,14,28.6,11.2,20,8.8c-0.8-0.2-1.1-0.1-1.5,0.7
			c-0.5,1.1-1,2.1-1.6,3.1c-0.7,1.3-1.3,2.6-2,3.9c12.4,3.6,24.4,8,35.9,13.7C52.3,27.3,53.8,24.6,55.4,21.7z"/>
	</g>
</g>
</svg>
