<?xml version="1.0" encoding="utf-8"?>
<!-- Generator: Adobe Illustrator 22.1.0, SVG Export Plug-In . SVG Version: 6.00 Build 0)  -->
<svg version="1.1" id="Layer_2_1_" xmlns="http://www.w3.org/2000/svg" xmlns:xlink="http://www.w3.org/1999/xlink" x="0px" y="0px"
	 viewBox="0 0 921.7 15.1" style="enable-background:new 0 0 921.7 15.1;" xml:space="preserve">
<style type="text/css">
	.st0{fill:none;stroke:#FFFFFF;stroke-miterlimit:10;}
</style>
<g>
	<line class="st0" x1="14.8" y1="0.4" x2="0.4" y2="14.8"/>
	<line class="st0" x1="28.3" y1="0.4" x2="13.9" y2="14.8"/>
	<line class="st0" x1="41.8" y1="0.4" x2="27.4" y2="14.8"/>
	<line class="st0" x1="55.3" y1="0.4" x2="40.9" y2="14.8"/>
	<line class="st0" x1="68.9" y1="0.4" x2="54.5" y2="14.8"/>
	<line class="st0" x1="82.4" y1="0.4" x2="68" y2="14.8"/>
	<line class="st0" x1="95.9" y1="0.4" x2="81.5" y2="14.8"/>
	<line class="st0" x1="109.5" y1="0.4" x2="95.1" y2="14.8"/>
	<line class="st0" x1="123" y1="0.4" x2="108.6" y2="14.8"/>
	<line class="st0" x1="136.5" y1="0.4" x2="122.1" y2="14.8"/>
	<line class="st0" x1="150.1" y1="0.4" x2="135.7" y2="14.8"/>
	<line class="st0" x1="163.6" y1="0.4" x2="149.2" y2="14.8"/>
	<line class="st0" x1="177.1" y1="0.4" x2="162.7" y2="14.8"/>
	<line class="st0" x1="190.7" y1="0.4" x2="176.3" y2="14.8"/>
	<line class="st0" x1="204.2" y1="0.4" x2="189.8" y2="14.8"/>
	<line class="st0" x1="217.7" y1="0.4" x2="203.3" y2="14.8"/>
	<line class="st0" x1="231.3" y1="0.4" x2="216.9" y2="14.8"/>
	<line class="st0" x1="244.8" y1="0.4" x2="230.4" y2="14.8"/>
	<line class="st0" x1="258.3" y1="0.4" x2="243.9" y2="14.8"/>
	<line class="st0" x1="271.9" y1="0.4" x2="257.5" y2="14.8"/>
	<line class="st0" x1="285.4" y1="0.4" x2="271" y2="14.8"/>
	<line class="st0" x1="298.9" y1="0.4" x2="284.5" y2="14.8"/>
	<line class="st0" x1="312.5" y1="0.4" x2="298.1" y2="14.8"/>
	<line class="st0" x1="326" y1="0.4" x2="311.6" y2="14.8"/>
	<line class="st0" x1="339.5" y1="0.4" x2="325.1" y2="14.8"/>
	<line class="st0" x1="353" y1="0.4" x2="338.6" y2="14.8"/>
	<line class="st0" x1="366.6" y1="0.4" x2="352.2" y2="14.8"/>
	<line class="st0" x1="380.1" y1="0.4" x2="365.7" y2="14.8"/>
	<line class="st0" x1="393.6" y1="0.4" x2="379.2" y2="14.8"/>
	<line class="st0" x1="407.2" y1="0.4" x2="392.8" y2="14.8"/>
	<line class="st0" x1="420.7" y1="0.4" x2="406.3" y2="14.8"/>
	<line class="st0" x1="434.2" y1="0.4" x2="419.8" y2="14.8"/>
	<line class="st0" x1="447.8" y1="0.4" x2="433.4" y2="14.8"/>
	<line class="st0" x1="461.3" y1="0.4" x2="446.9" y2="14.8"/>
	<line class="st0" x1="474.8" y1="0.4" x2="460.4" y2="14.8"/>
	<line class="st0" x1="488.4" y1="0.4" x2="474" y2="14.8"/>
	<line class="st0" x1="501.9" y1="0.4" x2="487.5" y2="14.8"/>
	<line class="st0" x1="515.4" y1="0.4" x2="501" y2="14.8"/>
	<line class="st0" x1="529" y1="0.4" x2="514.6" y2="14.8"/>
	<line class="st0" x1="542.5" y1="0.4" x2="528.1" y2="14.8"/>
	<line class="st0" x1="556" y1="0.4" x2="541.6" y2="14.8"/>
	<line class="st0" x1="569.6" y1="0.4" x2="555.2" y2="14.8"/>
	<line class="st0" x1="583.1" y1="0.4" x2="568.7" y2="14.8"/>
	<line class="st0" x1="596.6" y1="0.4" x2="582.2" y2="14.8"/>
	<line class="st0" x1="610.2" y1="0.4" x2="595.8" y2="14.8"/>
	<line class="st0" x1="623.7" y1="0.4" x2="609.3" y2="14.8"/>
	<line class="st0" x1="637.2" y1="0.4" x2="622.8" y2="14.8"/>
	<line class="st0" x1="650.8" y1="0.4" x2="636.4" y2="14.8"/>
	<line class="st0" x1="664.3" y1="0.4" x2="649.9" y2="14.8"/>
	<line class="st0" x1="677.8" y1="0.4" x2="663.4" y2="14.8"/>
	<line class="st0" x1="691.3" y1="0.4" x2="676.9" y2="14.8"/>
	<line class="st0" x1="704.9" y1="0.4" x2="690.5" y2="14.8"/>
	<line class="st0" x1="718.4" y1="0.4" x2="704" y2="14.8"/>
	<line class="st0" x1="731.9" y1="0.4" x2="717.5" y2="14.8"/>
	<line class="st0" x1="745.5" y1="0.4" x2="731.1" y2="14.8"/>
	<line class="st0" x1="759" y1="0.4" x2="744.6" y2="14.8"/>
	<line class="st0" x1="772.5" y1="0.4" x2="758.1" y2="14.8"/>
	<line class="st0" x1="786.1" y1="0.4" x2="771.7" y2="14.8"/>
	<line class="st0" x1="799.6" y1="0.4" x2="785.2" y2="14.8"/>
	<line class="st0" x1="813.1" y1="0.4" x2="798.7" y2="14.8"/>
	<line class="st0" x1="826.7" y1="0.4" x2="812.3" y2="14.8"/>
	<line class="st0" x1="840.2" y1="0.4" x2="825.8" y2="14.8"/>
	<line class="st0" x1="853.7" y1="0.4" x2="839.3" y2="14.8"/>
	<line class="st0" x1="867.3" y1="0.4" x2="852.9" y2="14.8"/>
	<line class="st0" x1="880.8" y1="0.4" x2="866.4" y2="14.8"/>
	<line class="st0" x1="894.3" y1="0.4" x2="879.9" y2="14.8"/>
	<line class="st0" x1="907.9" y1="0.4" x2="893.5" y2="14.8"/>
	<line class="st0" x1="921.4" y1="0.4" x2="907" y2="14.8"/>
</g>
</svg>
