<?xml version="1.0" encoding="utf-8"?>
<!-- Generator: Adobe Illustrator 22.1.0, SVG Export Plug-In . SVG Version: 6.00 Build 0)  -->
<svg version="1.1" id="Layer_1" xmlns="http://www.w3.org/2000/svg" xmlns:xlink="http://www.w3.org/1999/xlink" x="0px" y="0px"
	 viewBox="0 0 953.5 181.4" style="enable-background:new 0 0 953.5 181.4;" xml:space="preserve">
<style type="text/css">
	.st0{fill:#FFFFFF;}
	.st1{fill:url(#SVGID_1_);}
</style>
<g>
	<path class="st0" d="M12.3,102.2c-0.4-0.4-1.1-0.4-1.5,0l-4.5,4.5l-4.5-4.5c-0.4-0.4-1.1-0.4-1.5,0c-0.4,0.4-0.4,1.1,0,1.5l4.5,4.5
		l-4.5,4.5c-0.4,0.4-0.4,1.1,0,1.5c0.4,0.4,1.1,0.4,1.5,0l4.5-4.5l4.5,4.5c0.4,0.4,1.1,0.4,1.5,0c0.4-0.4,0.4-1.1,0-1.5l-4.5-4.5
		l4.5-4.5C12.7,103.3,12.7,102.7,12.3,102.2z"/>
	<path class="st0" d="M59.7,102.2c-0.4-0.4-1.1-0.4-1.5,0l-4.5,4.5l-4.5-4.5c-0.4-0.4-1.1-0.4-1.5,0c-0.4,0.4-0.4,1.1,0,1.5l4.5,4.5
		l-4.5,4.5c-0.4,0.4-0.4,1.1,0,1.5c0.4,0.4,1.1,0.4,1.5,0l4.5-4.5l4.5,4.5c0.4,0.4,1.1,0.4,1.5,0c0.4-0.4,0.4-1.1,0-1.5l-4.5-4.5
		l4.5-4.5C60.1,103.3,60.1,102.7,59.7,102.2z"/>
	<path class="st0" d="M37.4,107.1h-6.3v-6.3c0-0.6-0.5-1.1-1.1-1.1s-1.1,0.5-1.1,1.1v6.3h-6.3c-0.6,0-1.1,0.5-1.1,1.1
		s0.5,1.1,1.1,1.1h6.3v6.3c0,0.6,0.5,1.1,1.1,1.1s1.1-0.5,1.1-1.1v-6.3h6.3c0.6,0,1.1-0.5,1.1-1.1S37.9,107.1,37.4,107.1z"/>
</g>
<g>
	<path class="st0" d="M14.8,6.9H8.9V1c0-0.6-0.5-1-1-1c-0.6,0-1,0.5-1,1v5.9H1c-0.6,0-1,0.5-1,1s0.5,1,1,1h5.9v5.9c0,0.6,0.5,1,1,1
		c0.6,0,1-0.5,1-1V8.9h5.9c0.6,0,1-0.5,1-1S15.3,6.9,14.8,6.9z"/>
	<path class="st0" d="M35.6,2.3c-0.4-0.4-1-0.4-1.4,0L30,6.5l-4.2-4.2c-0.4-0.4-1-0.4-1.4,0c-0.4,0.4-0.4,1,0,1.4l4.2,4.2L24.4,12
		c-0.4,0.4-0.4,1,0,1.4c0.4,0.4,1,0.4,1.4,0L30,9.3l4.2,4.2c0.4,0.4,1,0.4,1.4,0c0.4-0.4,0.4-1,0-1.4l-4.2-4.2l4.2-4.2
		C35.9,3.3,35.9,2.7,35.6,2.3z"/>
	<path class="st0" d="M59,6.9h-5.9V1c0-0.6-0.5-1-1-1c-0.6,0-1,0.5-1,1v5.9h-5.9c-0.6,0-1,0.5-1,1s0.5,1,1,1h5.9v5.9
		c0,0.6,0.5,1,1,1c0.6,0,1-0.5,1-1V8.9H59c0.6,0,1-0.5,1-1S59.5,6.9,59,6.9z"/>
</g>
<g>
	<polygon class="st0" points="427,141.1 423.4,141.1 406.6,179 410.2,179 	"/>
	<polygon class="st0" points="457.9,151 445.5,179 449.1,179 457.9,159.2 	"/>
	<polygon class="st0" points="401,141.1 397.4,141.1 388.8,160.4 388.8,168.5 	"/>
	<polygon class="st0" points="393.6,179 397.2,179 414,141.1 410.4,141.1 	"/>
	<polygon class="st0" points="452.9,141.1 449.3,141.1 432.5,179 436.1,179 	"/>
	<polygon class="st0" points="440,141.1 436.4,141.1 419.5,179 423.1,179 	"/>
</g>
<g>
	<g>
		<polygon class="st0" points="822.1,0 782.8,0 782.8,116.7 808.7,116.7 822.1,85.9 		"/>
		<g>
			<polygon class="st0" points="900,0 896.6,0 844.9,116.7 848.3,116.7 			"/>
			<polygon class="st0" points="914.3,27 912.7,23.2 892.8,68 894.4,72 			"/>
			<polygon class="st0" points="907.8,12.1 906.1,8.2 886.5,52.6 888.1,56.6 			"/>
			<polygon class="st0" points="886.8,0 883.4,0 831.8,116.7 835.2,116.7 			"/>
			<polygon class="st0" points="822,116.7 873.7,0 870.3,0 818.6,116.7 			"/>
			<polygon class="st0" points="932.3,68.1 911.8,114.2 912.9,116.7 914.1,116.7 934,71.9 			"/>
			<polygon class="st0" points="947,101.8 945.4,98 937.1,116.7 940.5,116.7 			"/>
			<polygon class="st0" points="920.9,42 919.2,38.2 899.2,83.4 900.8,87.4 			"/>
			<polygon class="st0" points="951.9,113 950.3,116.7 953.5,116.7 			"/>
			<polygon class="st0" points="927.4,57 925.7,53.1 905.5,98.8 907.1,102.8 			"/>
			<polygon class="st0" points="940.5,86.9 938.8,83 923.9,116.7 927.3,116.7 			"/>
		</g>
		<path class="st0" d="M767.1,20.7c-4.3-6.7-10.5-11.8-18.5-15.3c-8-3.6-17.4-5.3-28.2-5.3h-56.2v116.7h39.3V88h16.8
			c10.8,0,20.2-1.8,28.2-5.3c8-3.6,14.2-8.7,18.5-15.3c4.3-6.7,6.5-14.4,6.5-23.3C773.6,35.1,771.4,27.3,767.1,20.7z M696.2,108.9
			h-24.7v-3.1h24.7V108.9z M696.2,100.7h-24.7v-3.1h24.7V100.7z M696.2,92.6h-24.7v-3.1h24.7V92.6z M696.2,84.4h-24.7v-3.1h24.7
			V84.4z M696.2,76.3h-24.7v-3.1h24.7V76.3z M696.2,68.1h-24.7V65h24.7V68.1z M696.2,59.9h-24.7v-3.1h24.7V59.9z M696.2,51.8h-24.7
			v-3.1h24.7V51.8z M696.2,43.6h-24.7v-3.1h24.7V43.6z M696.2,35.5h-24.7v-3.1h24.7V35.5z M696.2,27.3h-24.7v-3.1h24.7V27.3z
			 M696.2,19.2h-24.7v-3.1h24.7V19.2z M696.2,11h-24.7V7.9h24.7V11z M729.9,54.1c-2.7,2.4-6.7,3.6-12,3.6h-14.3V30.3h14.3
			c5.3,0,9.3,1.2,12,3.6c2.7,2.4,4,5.7,4,10.1S732.6,51.7,729.9,54.1z"/>
	</g>
	<g>
		<polygon class="st0" points="161.5,29.7 161.5,0 73.3,0 73.3,6 83.8,6 94.2,6 104.7,6 104.7,109.4 101.6,109.4 101.6,9.1 
			94.2,9.1 94.2,109.4 91.1,109.4 91.1,9.1 83.8,9.1 83.8,109.4 80.7,109.4 80.7,9.1 73.3,9.1 73.3,116.7 161.5,116.7 161.5,87 
			112,87 112,71.7 152.8,71.7 152.8,43.3 112,43.3 112,29.7 		"/>
		<g>
			<polygon class="st0" points="364.1,116.7 364.1,21.5 399.1,21.5 399.1,0 300.3,0 300.3,5 364,5 364,8.1 300.3,8.1 300.3,13.5 
				349.3,13.5 349.3,16.6 300.3,16.6 300.3,22.1 334.5,22.1 334.5,25.2 300.3,25.2 300.3,30.5 334.5,30.5 334.5,116.7 			"/>
			<path class="st0" d="M521.8,65.8c3.8-6.2,5.7-13.5,5.7-21.8c0-8.9-2.2-16.7-6.5-23.3S510.5,8.9,502.5,5.3
				c-8-3.6-17.4-5.3-28.2-5.3H408h-5.8v24.6h-35.1v92h6.7V30.5l34.2-0.2h49.5h2.2h12.1c5.3,0,9.3,1.2,12,3.6c2.7,2.4,4,5.8,4,10.1
				c0,4.3-1.3,7.7-4,10.1c-2.7,2.4-6.7,3.6-12,3.6h-12.1h-2.2h-39.3v59h39.3V87.3h10.7l10.9,29.3h42l-15.5-36
				C512.6,77,518.1,72.1,521.8,65.8z"/>
		</g>
		<g>
			<polygon class="st0" points="178,0 175.2,6.3 175.2,28.4 187.8,0 			"/>
			<polygon class="st0" points="191.1,0 175.2,36 175.2,58.1 200.9,0 			"/>
			<polygon class="st0" points="214,7.8 175.2,95.5 175.2,116.7 175.6,116.7 220.4,15.4 			"/>
			<polygon class="st0" points="207.5,0 204.3,0 175.2,65.8 175.2,87.9 211.8,5.1 			"/>
			<polygon class="st0" points="251.8,0 251.8,3.9 253.6,0 			"/>
			<polygon class="st0" points="257,0 251.8,11.6 251.8,33.6 266.7,0 			"/>
			<polygon class="st0" points="290.2,116.7 290.2,103.4 284.3,116.7 			"/>
			<polygon class="st0" points="267.7,116.7 290.2,66 290.2,43.9 258,116.7 			"/>
			<polygon class="st0" points="280.9,116.7 290.2,95.7 290.2,73.6 271.1,116.7 			"/>
			<polygon class="st0" points="201.9,116.7 213.5,90.5 213.5,68.4 192.1,116.7 			"/>
			<polygon class="st0" points="229,25.7 222.6,18.1 179,116.7 188.8,116.7 229,25.7 			"/>
			<polygon class="st0" points="213.5,116.7 213.5,98.1 205.3,116.7 			"/>
			<g>
				<polygon class="st0" points="237.6,36 237.6,36 237.6,36 237.6,36 				"/>
				<polygon class="st0" points="231.2,28.4 214.9,65.3 221.3,72.9 237.6,36 				"/>
				<polygon class="st0" points="239.8,38.7 223.5,75.6 229.9,83.2 246.2,46.3 				"/>
			</g>
			<polygon class="st0" points="238.5,93.5 279.9,0 270.1,0 251.8,41.3 251.8,53 248.5,48.9 232.1,85.9 238.5,93.5 			"/>
			<g>
				<polygon class="st0" points="249.3,106.5 249.3,106.5 255.7,114.1 290.2,36.3 290.2,14.2 249.3,106.5 				"/>
				<polygon class="st0" points="240.7,96.2 240.7,96.2 240.7,96.2 				"/>
				<polygon class="st0" points="240.7,96.2 240.7,96.2 240.7,96.2 				"/>
				<polygon class="st0" points="283.3,0 240.7,96.2 247.1,103.8 247.1,103.8 290.2,6.5 290.2,0 				"/>
			</g>
		</g>
	</g>
</g>
<g>
	<path class="st0" d="M485.7,167.9v-15.3c0-8,4.2-11.9,12.7-11.9c3.4,0,6.2,0.8,8.3,2.3c2.4,1.9,3.6,4.4,3.6,7.5
		c0,1.5-0.6,2.3-1.8,2.3c-0.9,0-1.5-0.7-1.9-2.1c-0.2-1.2-0.7-2.4-1.4-3.5c-1.1-1.9-3.4-2.9-7.1-2.9c-3.1,0-5.4,0.8-6.8,2.4
		c-1.3,1.4-1.9,3.7-1.9,6.9v12.7c0,3.3,0.7,5.7,2,7.1c1.4,1.6,3.7,2.4,6.9,2.4c4.7,0,7.5-1.7,8.2-5c0.3-1.2,0.4-1.9,0.4-1.9
		c0.3-0.7,0.8-1,1.4-1c1.2,0,1.8,0.8,1.8,2.3c0,3-1.3,5.4-3.8,7.2c-2,1.3-4.7,2-8,2c-3.9,0-7-0.9-9.2-2.8
		C486.9,174.6,485.7,171.7,485.7,167.9z"/>
	<path class="st0" d="M544.3,157.6h17.1v-14.2c0-1.8,0.6-2.7,1.9-2.7c1.2,0,1.8,0.9,1.8,2.7v34.1c0,1.3-0.6,1.9-1.9,1.9
		c-1.2,0-1.9-0.6-1.9-1.9v-16.3h-17.1v16.1c0,1.4-0.6,2.1-1.9,2.1c-1.3,0-1.9-0.7-1.9-2.1v-33.4c0-2.1,0.6-3.2,1.9-3.2
		c1.2,0,1.9,1,1.9,3V157.6z"/>
	<path class="st0" d="M615.7,167.8h-14.8l-2.1,10.4c-0.1,0.7-0.7,1.1-1.6,1.1c-1.3,0-1.9-0.5-1.8-1.5c0.1-0.7,1-5.6,2.8-14.7
		c1.7-8.3,2.8-13.7,3.4-16.3c0.9-4.1,3.1-6.2,6.8-6.2c3.7,0,6,2.1,6.8,6.2c1.1,5.3,2.3,10.6,3.4,16c1.9,9.1,2.9,14,2.9,14.7
		c0,1.2-0.6,1.9-1.9,1.9c-1,0-1.6-0.4-1.8-1.3L615.7,167.8z M601.5,164.2H615l-3-15.3c-0.6-3.1-1.8-4.6-3.7-4.6
		c-1.1,0-2,0.4-2.6,1.3c-0.5,0.7-0.9,1.9-1.2,3.6L601.5,164.2z"/>
	<path class="st0" d="M669.7,161.9l8,14.3c0.3,0.6,0.5,1.1,0.5,1.6c0,1.1-0.6,1.6-1.7,1.6c-0.8,0-1.5-0.5-2-1.4l-8.6-15.4h-10.4
		v14.6c0,1.4-0.6,2.1-1.9,2.1c-1.3,0-1.9-0.7-1.9-2.1v-33.8c0-0.8,0.1-1.3,0.4-1.6c0.3-0.3,0.8-0.4,1.5-0.4h13.7c3.1,0,5.6,1,7.3,3
		c1.6,1.9,2.4,4.4,2.4,7.6c0,2.9-0.5,5.1-1.6,6.5C674.4,159.9,672.5,161,669.7,161.9z M655.5,159h10.2c5.1,0,7.6-2.3,7.6-7
		c0-2-0.4-3.7-1.3-4.9c-1-1.4-2.5-2.1-4.4-2.1h-12.1V159z"/>
	<path class="st0" d="M730,171.6v-28.3c0-1.7,0.6-2.6,1.8-2.6c1.3,0,1.9,0.9,1.9,2.6v34.2c0,1.3-0.6,1.9-1.9,1.9
		c-0.9,0-1.5-0.4-2-1.2l-17.7-29.7v28.8c0,1.4-0.7,2.1-2,2.1c-1.2,0-1.8-0.7-1.8-2.1v-34c0-1.7,0.6-2.6,1.8-2.6c0.7,0,1.4,0.5,2,1.4
		L730,171.6z"/>
	<path class="st0" d="M767.8,145v12.6h13c1.7,0,2.6,0.6,2.6,1.7c0,1.3-0.9,1.9-2.6,1.9h-13V175H786c1.7,0,2.6,0.6,2.6,1.7
		c0,1.3-0.9,1.9-2.6,1.9h-19.6c-1.5,0-2.3-0.8-2.3-2.3v-32.8c0-0.6,0.2-1.1,0.7-1.5c0.5-0.4,1-0.6,1.6-0.6H786
		c1.7,0,2.6,0.6,2.6,1.7c0,1.3-0.9,1.9-2.6,1.9H767.8z"/>
	<path class="st0" d="M827.8,175v-30h-6.6c-1.6,0-2.3-0.6-2.3-1.8c0-1.2,0.7-1.8,2.1-1.8h17.3c1.5,0,2.2,0.6,2.2,1.7
		c0,1.3-0.7,1.9-2.2,1.9h-6.8v30h6.5c1.7,0,2.5,0.6,2.5,1.8c0,1.2-0.8,1.8-2.5,1.8h-17.1c-1.4,0-2-0.6-2-1.7c0-1.3,0.7-1.9,2-1.9
		H827.8z"/>
	<path class="st0" d="M888.7,161.9l8,14.3c0.3,0.6,0.5,1.1,0.5,1.6c0,1.1-0.6,1.6-1.7,1.6c-0.8,0-1.5-0.5-2-1.4l-8.6-15.4h-10.4
		v14.6c0,1.4-0.6,2.1-1.9,2.1c-1.3,0-1.9-0.7-1.9-2.1v-33.8c0-0.8,0.1-1.3,0.4-1.6c0.3-0.3,0.8-0.4,1.5-0.4h13.7c3.1,0,5.6,1,7.3,3
		c1.6,1.9,2.4,4.4,2.4,7.6c0,2.9-0.5,5.1-1.6,6.5C893.4,159.9,891.5,161,888.7,161.9z M874.5,159h10.2c5.1,0,7.6-2.3,7.6-7
		c0-2-0.4-3.7-1.3-4.9c-1-1.4-2.5-2.1-4.4-2.1h-12.1V159z"/>
	<path class="st0" d="M947.7,167.8H933l-2.1,10.4c-0.1,0.7-0.7,1.1-1.6,1.1c-1.3,0-1.9-0.5-1.8-1.5c0.1-0.7,1-5.6,2.8-14.7
		c1.7-8.3,2.8-13.7,3.4-16.3c0.9-4.1,3.1-6.2,6.8-6.2c3.7,0,6,2.1,6.8,6.2c1.1,5.3,2.3,10.6,3.4,16c1.9,9.1,2.9,14,2.9,14.7
		c0,1.2-0.6,1.9-1.9,1.9c-1,0-1.6-0.4-1.8-1.3L947.7,167.8z M933.6,164.2H947l-3-15.3c-0.6-3.1-1.8-4.6-3.7-4.6
		c-1.1,0-2,0.4-2.6,1.3c-0.5,0.7-0.9,1.9-1.2,3.6L933.6,164.2z"/>
</g>
<linearGradient id="SVGID_1_" gradientUnits="userSpaceOnUse" x1="0" y1="160.1991" x2="361.2188" y2="160.1991">
	<stop  offset="1.331947e-07" style="stop-color:#E81540"/>
	<stop  offset="0.3229" style="stop-color:#852BC1"/>
	<stop  offset="0.6411" style="stop-color:#382F7E"/>
	<stop  offset="1" style="stop-color:#26CCDD"/>
</linearGradient>
<path class="st1" d="M3.3,147.4h32.1v3.2H20.9v22.7h17.8v3.2H0v-3.2h17.5v-22.7H3.3V147.4z M68.3,144.5c4.9,1.5,10.5,4,14,6.4
	l-1.8,3c-3.4-2.4-8.9-4.9-13.7-6.5L68.3,144.5z M68.1,177c16.6-5.2,27.7-14.5,33.3-27.5c1,0.8,2.1,1.4,3,1.9
	c-5.9,12.8-17.3,22.8-33.2,28.1c0,0.4-0.3,0.9-0.7,1.1L68.1,177z M158.2,165.6c-4.8-2.6-11.3-5.6-16.5-7.6v23.4h-3.5v-40.7l4.7,0.3
	c0,0.5-0.4,0.8-1.2,1v13.7l0.7-1c5.5,2,12.8,5.3,17.6,7.8L158.2,165.6z M225,147.1v30.9h-3.4v-3h-25.8v3h-3.3v-31H225z M221.6,172
	v-21.7h-25.8V172H221.6z M282.4,176.3c1.9,0,6.9-0.2,9.8-0.7c0,1,0.1,2.3,0.2,3.4c-3.1,0.4-7.8,0.5-9.7,0.5H271
	c-7.1,0-10.5-3-10.5-9.8v-27.4l4.6,0.3c-0.1,0.5-0.4,0.8-1.3,0.9v15.2c7.2-2.3,17.2-6,23.3-9.3l2.4,3.2c-0.1,0.1-0.3,0.1-0.5,0.1
	c-0.2,0-0.5,0-0.7-0.1c-5.7,2.9-16.4,6.8-24.4,9.2v7.8c0,4.8,2.3,6.5,7.1,6.5H282.4z M292.2,139c2.9,0,5.3,2.3,5.3,5.3
	s-2.3,5.3-5.3,5.3s-5.3-2.3-5.3-5.3C286.9,141.2,289.3,139,292.2,139z M295.8,144.2c0-2.1-1.6-3.8-3.7-3.8c-2.1,0-3.7,1.7-3.7,3.8
	c0,2.1,1.6,3.8,3.7,3.8C294.3,148,295.8,146.2,295.8,144.2z M322.1,158.7h39.2v3.3h-37.4c-0.3,0.5-0.9,0.8-1.5,0.9L322.1,158.7z"/>
<g>
	<path class="st0" d="M595.9,0c-32.2,0-58.3,26.1-58.3,58.3c0,32.2,26.1,58.3,58.3,58.3c32.2,0,58.3-26.1,58.3-58.3
		C654.2,26.1,628.1,0,595.9,0z M619.1,63h-18.6v18.6c0,2.6-2.1,4.6-4.6,4.6s-4.6-2.1-4.6-4.6V63h-18.6c-2.6,0-4.6-2.1-4.6-4.6
		c0-2.6,2.1-4.6,4.6-4.6h18.6V35.1c0-2.6,2.1-4.6,4.6-4.6s4.6,2.1,4.6,4.6v18.6h18.6c2.6,0,4.6,2.1,4.6,4.6
		C623.7,60.9,621.7,63,619.1,63z"/>
</g>
<g>
	<polygon class="st0" points="20.4,24.8 16.8,24.8 0,62.7 0,70.9 	"/>
	<polygon class="st0" points="46.4,24.8 42.8,24.8 13.6,90.7 17.2,90.7 	"/>
	<polygon class="st0" points="0,33.4 0,41.5 7.4,24.8 3.8,24.8 	"/>
	<polygon class="st0" points="33.4,24.8 29.8,24.8 0.6,90.7 4.2,90.7 	"/>
	<polygon class="st0" points="59.4,24.8 55.8,24.8 26.6,90.7 30.2,90.7 	"/>
	<polygon class="st0" points="60,82.3 60,74.1 52.6,90.7 56.2,90.7 	"/>
	<polygon class="st0" points="60,52.9 60,44.8 39.6,90.7 43.2,90.7 	"/>
</g>
</svg>
