<?xml version="1.0" encoding="utf-8"?>
<!-- Generator: Adobe Illustrator 22.1.0, SVG Export Plug-In . SVG Version: 6.00 Build 0)  -->
<svg version="1.1" id="Layer_1" xmlns="http://www.w3.org/2000/svg" xmlns:xlink="http://www.w3.org/1999/xlink" x="0px" y="0px"
	 viewBox="0 0 576.2 325.8" style="enable-background:new 0 0 576.2 325.8;" xml:space="preserve">
<style type="text/css">
	.st0{fill:#FFFFFF;}
	.st1{fill:url(#SVGID_1_);}
</style>
<g>
	<g>
		<path class="st0" d="M84.1,153.8h-8v-8c0-0.8-0.6-1.4-1.4-1.4c-0.8,0-1.4,0.6-1.4,1.4v8h-8c-0.8,0-1.4,0.6-1.4,1.4
			s0.6,1.4,1.4,1.4h8v8c0,0.8,0.6,1.4,1.4,1.4c0.8,0,1.4-0.6,1.4-1.4v-8h8c0.8,0,1.4-0.6,1.4-1.4S84.9,153.8,84.1,153.8z"/>
		<path class="st0" d="M112.6,147.5c-0.5-0.5-1.4-0.5-1.9,0l-5.7,5.7l-5.7-5.7c-0.5-0.5-1.4-0.5-1.9,0s-0.5,1.4,0,1.9l5.7,5.7
			l-5.7,5.7c-0.5,0.5-0.5,1.4,0,1.9s1.4,0.5,1.9,0l5.7-5.7l5.7,5.7c0.5,0.5,1.4,0.5,1.9,0s0.5-1.4,0-1.9l-5.7-5.7l5.7-5.7
			C113.1,148.9,113.1,148,112.6,147.5z"/>
		<path class="st0" d="M144.7,153.8h-8v-8c0-0.8-0.6-1.4-1.4-1.4c-0.8,0-1.4,0.6-1.4,1.4v8h-8c-0.8,0-1.4,0.6-1.4,1.4
			s0.6,1.4,1.4,1.4h8v8c0,0.8,0.6,1.4,1.4,1.4c0.8,0,1.4-0.6,1.4-1.4v-8h8c0.8,0,1.4-0.6,1.4-1.4S145.4,153.8,144.7,153.8z"/>
	</g>
	<g>
		<path class="st0" d="M82.4,243.3c-0.5-0.5-1.4-0.5-1.9,0l-5.7,5.7l-5.7-5.7c-0.5-0.5-1.4-0.5-1.9,0c-0.5,0.5-0.5,1.4,0,1.9
			l5.7,5.7l-5.7,5.7c-0.5,0.5-0.5,1.4,0,1.9c0.5,0.5,1.4,0.5,1.9,0l5.7-5.7l5.7,5.7c0.5,0.5,1.4,0.5,1.9,0c0.5-0.5,0.5-1.4,0-1.9
			l-5.7-5.7l5.7-5.7C82.9,244.7,82.9,243.8,82.4,243.3z"/>
		<path class="st0" d="M142.9,243.3c-0.5-0.5-1.4-0.5-1.9,0l-5.7,5.7l-5.7-5.7c-0.5-0.5-1.4-0.5-1.9,0c-0.5,0.5-0.5,1.4,0,1.9
			l5.7,5.7l-5.7,5.7c-0.5,0.5-0.5,1.4,0,1.9c0.5,0.5,1.4,0.5,1.9,0l5.7-5.7l5.7,5.7c0.5,0.5,1.4,0.5,1.9,0c0.5-0.5,0.5-1.4,0-1.9
			l-5.7-5.7l5.7-5.7C143.4,244.7,143.4,243.8,142.9,243.3z"/>
		<path class="st0" d="M114.4,249.5h-8v-8c0-0.8-0.6-1.4-1.4-1.4s-1.4,0.6-1.4,1.4v8h-8c-0.8,0-1.4,0.6-1.4,1.4
			c0,0.8,0.6,1.4,1.4,1.4h8v8c0,0.8,0.6,1.4,1.4,1.4s1.4-0.6,1.4-1.4v-8h8c0.8,0,1.4-0.6,1.4-1.4
			C115.8,250.1,115.2,249.5,114.4,249.5z"/>
	</g>
	<polygon class="st0" points="443.3,145 404,145 404,261.7 429.9,261.7 443.3,230.9 	"/>
	<g>
		<polygon class="st0" points="521.1,145 517.8,145 466.1,261.7 469.5,261.7 		"/>
		<polygon class="st0" points="535.5,172.1 533.8,168.2 514,213 515.6,217 		"/>
		<polygon class="st0" points="529,157.1 527.3,153.3 507.6,197.6 509.3,201.6 		"/>
		<polygon class="st0" points="508,145 504.6,145 452.9,261.7 456.3,261.7 		"/>
		<polygon class="st0" points="443.2,261.7 494.8,145 491.4,145 439.8,261.7 		"/>
		<polygon class="st0" points="553.4,213.1 533,259.2 534,261.7 535.3,261.7 555.1,216.9 		"/>
		<polygon class="st0" points="568.2,246.9 566.5,243 558.2,261.7 561.6,261.7 		"/>
		<polygon class="st0" points="542,187 540.4,183.2 520.3,228.4 521.9,232.4 		"/>
		<polygon class="st0" points="573.1,258 571.4,261.7 574.7,261.7 		"/>
		<polygon class="st0" points="548.6,202 546.9,198.1 526.7,243.8 528.3,247.8 		"/>
		<polygon class="st0" points="561.7,231.9 560,228.1 545.1,261.7 548.5,261.7 		"/>
	</g>
	<polygon class="st0" points="152.1,29.7 152.1,0 64,0 64,6 74.4,6 84.9,6 95.3,6 95.3,109.4 92.2,109.4 92.2,9.1 84.9,9.1 
		84.9,109.4 81.8,109.4 81.8,9.1 74.4,9.1 74.4,109.4 71.3,109.4 71.3,9.1 64,9.1 64,116.7 152.1,116.7 152.1,87 102.6,87 
		102.6,71.7 143.4,71.7 143.4,43.3 102.6,43.3 102.6,29.7 	"/>
	<g>
		<polygon class="st0" points="354.7,116.7 354.7,21.5 389.7,21.5 389.7,0 291,0 291,5 354.6,5 354.6,8.1 291,8.1 291,13.5 
			339.9,13.5 339.9,16.6 291,16.6 291,22.1 325.1,22.1 325.1,25.2 291,25.2 291,30.5 325.1,30.5 325.1,116.7 		"/>
		<path class="st0" d="M512.4,65.8c3.8-6.2,5.7-13.5,5.7-21.8c0-8.9-2.2-16.7-6.5-23.3c-4.3-6.7-10.5-11.8-18.5-15.3
			c-8-3.6-17.4-5.3-28.2-5.3h-66.3h-5.8v24.6h-35.1v92h6.7V30.5l34.2-0.2h49.5h2.2h12.1c5.3,0,9.3,1.2,12,3.6c2.7,2.4,4,5.8,4,10.1
			c0,4.3-1.3,7.7-4,10.1c-2.7,2.4-6.7,3.6-12,3.6h-12.1h-2.2h-39.3v59h39.3V87.3h10.7l10.9,29.3h42l-15.5-36
			C503.2,77,508.7,72.1,512.4,65.8z"/>
	</g>
	<path class="st0" d="M388.2,165.7c-4.3-6.7-10.5-11.8-18.5-15.3c-8-3.6-17.4-5.3-28.2-5.3h-56.2v116.7h39.3V233h16.8
		c10.8,0,20.2-1.8,28.2-5.3c8-3.6,14.2-8.7,18.5-15.3c4.3-6.7,6.5-14.4,6.5-23.3C394.7,180.1,392.5,172.4,388.2,165.7z M317.4,253.9
		h-24.7v-3.1h24.7V253.9z M317.4,245.7h-24.7v-3.1h24.7V245.7z M317.4,237.6h-24.7v-3.1h24.7V237.6z M317.4,229.4h-24.7v-3.1h24.7
		V229.4z M317.4,221.3h-24.7v-3.1h24.7V221.3z M317.4,213.1h-24.7V210h24.7V213.1z M317.4,205h-24.7v-3.1h24.7V205z M317.4,196.8
		h-24.7v-3.1h24.7V196.8z M317.4,188.7h-24.7v-3.1h24.7V188.7z M317.4,180.5h-24.7v-3.1h24.7V180.5z M317.4,172.3h-24.7v-3.1h24.7
		V172.3z M317.4,164.2h-24.7v-3.1h24.7V164.2z M317.4,156h-24.7v-3.1h24.7V156z M351,199.1c-2.7,2.4-6.7,3.6-12,3.6h-14.3v-27.3H339
		c5.3,0,9.3,1.2,12,3.6c2.7,2.4,4,5.7,4,10.1S353.7,196.7,351,199.1z"/>
	<g>
		<polygon class="st0" points="168.6,0 165.8,6.3 165.8,28.4 178.4,0 		"/>
		<polygon class="st0" points="181.8,0 165.8,36 165.8,58.1 191.5,0 		"/>
		<polygon class="st0" points="204.6,7.8 165.8,95.5 165.8,116.7 166.2,116.7 211,15.4 		"/>
		<polygon class="st0" points="198.1,0 194.9,0 165.8,65.8 165.8,87.9 202.4,5.1 		"/>
		<polygon class="st0" points="242.5,0 242.5,3.9 244.2,0 		"/>
		<polygon class="st0" points="247.6,0 242.5,11.6 242.5,33.6 257.4,0 		"/>
		<polygon class="st0" points="280.8,116.7 280.8,103.4 274.9,116.7 		"/>
		<polygon class="st0" points="258.4,116.7 280.8,66 280.8,43.9 248.6,116.7 		"/>
		<polygon class="st0" points="271.5,116.7 280.8,95.7 280.8,73.6 261.7,116.7 		"/>
		<polygon class="st0" points="192.5,116.7 204.1,90.5 204.1,68.4 182.8,116.7 		"/>
		<polygon class="st0" points="219.6,25.7 213.2,18.1 169.6,116.7 179.4,116.7 219.6,25.7 		"/>
		<polygon class="st0" points="204.1,116.7 204.1,98.1 195.9,116.7 		"/>
		<g>
			<polygon class="st0" points="228.2,36 228.2,36 228.2,36 228.2,36 			"/>
			<polygon class="st0" points="221.9,28.4 205.5,65.3 211.9,72.9 228.2,36 			"/>
			<polygon class="st0" points="230.5,38.7 230.5,38.7 230.5,38.7 			"/>
			<polygon class="st0" points="230.5,38.7 214.1,75.6 220.5,83.2 236.9,46.3 			"/>
		</g>
		<polygon class="st0" points="229.1,93.5 270.5,0 260.7,0 242.5,41.3 242.5,53 239.1,48.9 222.7,85.9 229.1,93.5 		"/>
		<g>
			<polygon class="st0" points="239.9,106.5 239.9,106.5 246.3,114.1 280.8,36.3 280.8,14.2 239.9,106.5 			"/>
			<polygon class="st0" points="231.3,96.2 231.3,96.2 231.3,96.2 			"/>
			<polygon class="st0" points="231.3,96.2 231.3,96.2 231.3,96.2 			"/>
			<polygon class="st0" points="273.9,0 231.3,96.2 237.7,103.8 237.7,103.8 280.8,6.5 280.8,0 			"/>
		</g>
	</g>
	<linearGradient id="SVGID_1_" gradientUnits="userSpaceOnUse" x1="21.4571" y1="0" x2="21.4571" y2="325.7864">
		<stop  offset="1.331947e-07" style="stop-color:#E81540"/>
		<stop  offset="0.3229" style="stop-color:#852BC1"/>
		<stop  offset="0.6411" style="stop-color:#382F7E"/>
		<stop  offset="1" style="stop-color:#26CCDD"/>
	</linearGradient>
	<path class="st1" d="M3.6,0h33.1v3.3H21.8v23.4h18.4V30H0.2v-3.3h18.1V3.3H3.6V0z M1.5,55c5,1.6,10.8,4.1,14.4,6.6l-1.8,3
		c-3.5-2.5-9.2-5-14.1-6.7L1.5,55z M1.4,88.4c17.2-5.3,28.6-14.9,34.4-28.3c1,0.8,2.1,1.4,3.1,2c-6,13.2-17.8,23.5-34.2,29
		c0,0.4-0.3,0.9-0.7,1.1L1.4,88.4z M27.5,134.7c-4.9-2.7-11.7-5.8-17-7.9V151H6.9v-42l4.9,0.3c0,0.5-0.4,0.9-1.3,1v14.1l0.7-1
		c5.7,2.1,13.1,5.4,18.2,8.1L27.5,134.7z M36.4,173.7v31.9h-3.5v-3H6.3v3.1H2.9v-32H36.4z M32.9,199.3v-22.4H6.3v22.4H32.9z
		 M27.4,261.8c1.9,0,7.1-0.2,10.1-0.7c0,1.1,0.1,2.4,0.2,3.5c-3.2,0.4-8,0.5-10,0.5H15.7c-7.3,0-10.8-3.1-10.8-10.1v-28.2l4.7,0.3
		c-0.1,0.5-0.4,0.8-1.3,0.9v15.7c7.4-2.3,17.7-6.2,24-9.6l2.5,3.3c-0.1,0.1-0.3,0.1-0.5,0.1c-0.2,0-0.5,0-0.7-0.1
		c-5.8,2.9-16.9,7.1-25.2,9.5v8.1c0,4.9,2.4,6.7,7.3,6.7H27.4z M37.5,223.3c3,0,5.4,2.4,5.4,5.4c0,3-2.4,5.4-5.4,5.4
		c-3,0-5.5-2.4-5.5-5.4C32,225.6,34.6,223.3,37.5,223.3z M41.3,228.7c0-2.1-1.7-3.9-3.8-3.9c-2.1,0-3.8,1.7-3.8,3.9
		c0,2.1,1.7,3.9,3.8,3.9C39.7,232.5,41.3,230.7,41.3,228.7z M22.1,285.4v40.4h-3.4v-38.5c-0.5-0.3-0.8-0.9-0.9-1.5L22.1,285.4z"/>
	<g>
		<g>
			<g>
				<path class="st0" d="M560.2,302.3v2.1h-12.4v-1.7l7-6.8c0.9-0.8,1.4-1.5,1.7-2.1c0.3-0.6,0.4-1.2,0.4-1.8c0-0.9-0.3-1.6-0.9-2.1
					c-0.6-0.5-1.5-0.7-2.7-0.7c-1.9,0-3.4,0.6-4.4,1.9l-1.7-1.5c0.7-0.8,1.6-1.5,2.6-1.9c1.1-0.5,2.3-0.7,3.7-0.7
					c1.8,0,3.2,0.4,4.3,1.3c1.1,0.9,1.6,2,1.6,3.5c0,0.9-0.2,1.8-0.6,2.6c-0.4,0.8-1.1,1.8-2.2,2.8l-5.3,5.1H560.2z"/>
				<path class="st0" d="M565.6,303.6c-1.1-0.7-1.9-1.7-2.5-3c-0.6-1.3-0.9-2.9-0.9-4.7s0.3-3.4,0.9-4.7c0.6-1.3,1.4-2.3,2.5-3
					c1.1-0.7,2.3-1,3.6-1c1.3,0,2.5,0.3,3.6,1c1.1,0.7,1.9,1.7,2.5,3c0.6,1.3,0.9,2.9,0.9,4.7s-0.3,3.4-0.9,4.7
					c-0.6,1.3-1.4,2.3-2.5,3c-1.1,0.7-2.3,1-3.6,1C567.9,304.7,566.6,304.3,565.6,303.6z M572.5,300.8c0.8-1.1,1.2-2.8,1.2-4.9
					c0-2.1-0.4-3.8-1.2-4.9c-0.8-1.1-1.9-1.7-3.3-1.7c-1.4,0-2.5,0.6-3.3,1.7c-0.8,1.1-1.2,2.8-1.2,4.9c0,2.1,0.4,3.8,1.2,4.9
					c0.8,1.1,1.9,1.7,3.3,1.7C570.6,302.5,571.7,301.9,572.5,300.8z"/>
				<path class="st0" d="M560.2,323.5v2.1h-12.4v-1.7l7-6.8c0.9-0.8,1.4-1.5,1.7-2.1c0.3-0.6,0.4-1.2,0.4-1.8c0-0.9-0.3-1.6-0.9-2.1
					c-0.6-0.5-1.5-0.7-2.7-0.7c-1.9,0-3.4,0.6-4.4,1.9l-1.7-1.5c0.7-0.8,1.6-1.5,2.6-1.9c1.1-0.5,2.3-0.7,3.7-0.7
					c1.8,0,3.2,0.4,4.3,1.3c1.1,0.9,1.6,2,1.6,3.5c0,0.9-0.2,1.8-0.6,2.6c-0.4,0.8-1.1,1.8-2.2,2.8l-5.3,5.1H560.2z"/>
				<path class="st0" d="M565.6,324.7c-1.1-0.7-1.9-1.7-2.5-3c-0.6-1.3-0.9-2.9-0.9-4.7c0-1.8,0.3-3.4,0.9-4.7
					c0.6-1.3,1.4-2.3,2.5-3c1.1-0.7,2.3-1,3.6-1c1.3,0,2.5,0.3,3.6,1c1.1,0.7,1.9,1.7,2.5,3c0.6,1.3,0.9,2.9,0.9,4.7
					c0,1.8-0.3,3.4-0.9,4.7c-0.6,1.3-1.4,2.3-2.5,3c-1.1,0.7-2.3,1-3.6,1C567.9,325.8,566.6,325.4,565.6,324.7z M572.5,321.9
					c0.8-1.1,1.2-2.8,1.2-4.9c0-2.1-0.4-3.8-1.2-4.9c-0.8-1.1-1.9-1.7-3.3-1.7c-1.4,0-2.5,0.6-3.3,1.7c-0.8,1.1-1.2,2.8-1.2,4.9
					c0,2.1,0.4,3.8,1.2,4.9c0.8,1.1,1.9,1.7,3.3,1.7C570.6,323.6,571.7,323,572.5,321.9z"/>
			</g>
			<path class="st0" d="M64,314.3V299c0-8,4.2-11.9,12.7-11.9c3.4,0,6.2,0.8,8.3,2.3c2.4,1.9,3.6,4.4,3.6,7.5c0,1.5-0.6,2.3-1.8,2.3
				c-0.9,0-1.5-0.7-1.9-2.1c-0.2-1.2-0.7-2.4-1.4-3.5c-1.1-1.9-3.4-2.9-7.1-2.9c-3.1,0-5.4,0.8-6.8,2.4c-1.3,1.4-1.9,3.7-1.9,6.9
				v12.7c0,3.3,0.7,5.7,2,7.1c1.4,1.6,3.7,2.4,6.9,2.4c4.7,0,7.5-1.7,8.2-5c0.3-1.2,0.4-1.9,0.4-1.9c0.3-0.7,0.8-1,1.4-1
				c1.2,0,1.8,0.8,1.8,2.3c0,3-1.3,5.4-3.8,7.2c-2,1.3-4.7,2-8,2c-3.9,0-7-0.9-9.2-2.8C65.2,321,64,318.1,64,314.3z"/>
			<path class="st0" d="M121.4,304h17.1v-14.2c0-1.8,0.6-2.7,1.9-2.7c1.2,0,1.8,0.9,1.8,2.7v34.1c0,1.3-0.6,1.9-1.9,1.9
				s-1.9-0.6-1.9-1.9v-16.3h-17.1v16.1c0,1.4-0.6,2.1-1.9,2.1c-1.3,0-1.9-0.7-1.9-2.1v-33.4c0-2.1,0.6-3.2,1.9-3.2
				c1.2,0,1.9,1,1.9,3V304z"/>
			<path class="st0" d="M191.7,314.2h-14.8l-2.1,10.4c-0.1,0.7-0.7,1.1-1.6,1.1c-1.3,0-1.9-0.5-1.8-1.5c0.1-0.7,1-5.6,2.8-14.7
				c1.7-8.3,2.8-13.7,3.4-16.3c0.9-4.1,3.1-6.2,6.8-6.2c3.7,0,6,2.1,6.8,6.2c1.1,5.3,2.3,10.6,3.4,16c1.9,9.1,2.9,14,2.9,14.7
				c0,1.2-0.6,1.9-1.9,1.9c-1,0-1.6-0.4-1.8-1.3L191.7,314.2z M177.5,310.6H191l-3-15.3c-0.6-3.1-1.8-4.6-3.7-4.6
				c-1.1,0-2,0.4-2.6,1.3c-0.5,0.7-0.9,1.9-1.2,3.6L177.5,310.6z"/>
			<path class="st0" d="M244.6,308.3l8,14.3c0.3,0.6,0.5,1.1,0.5,1.6c0,1.1-0.6,1.6-1.7,1.6c-0.8,0-1.5-0.5-2-1.4l-8.6-15.4h-10.4
				v14.6c0,1.4-0.6,2.1-1.9,2.1c-1.3,0-1.9-0.7-1.9-2.1v-33.8c0-0.8,0.1-1.3,0.4-1.6c0.3-0.3,0.8-0.4,1.5-0.4h13.7
				c3.1,0,5.6,1,7.3,3c1.6,1.9,2.4,4.4,2.4,7.6c0,2.9-0.5,5.1-1.6,6.5C249.3,306.3,247.4,307.4,244.6,308.3z M230.3,305.4h10.2
				c5.1,0,7.6-2.3,7.6-7c0-2-0.4-3.7-1.3-4.9c-1-1.4-2.5-2.1-4.4-2.1h-12.1V305.4z"/>
			<path class="st0" d="M303.8,318v-28.3c0-1.7,0.6-2.6,1.8-2.6c1.3,0,1.9,0.9,1.9,2.6v34.2c0,1.3-0.6,1.9-1.9,1.9
				c-0.9,0-1.5-0.4-2-1.2l-17.7-29.7v28.8c0,1.4-0.7,2.1-2,2.1c-1.2,0-1.8-0.7-1.8-2.1v-34c0-1.7,0.6-2.6,1.8-2.6
				c0.7,0,1.4,0.5,2,1.4L303.8,318z"/>
			<path class="st0" d="M340.4,291.4V304h13c1.7,0,2.6,0.6,2.6,1.7c0,1.3-0.9,1.9-2.6,1.9h-13v13.9h18.2c1.7,0,2.6,0.6,2.6,1.7
				c0,1.3-0.9,1.9-2.6,1.9H339c-1.5,0-2.3-0.8-2.3-2.3v-32.8c0-0.6,0.2-1.1,0.7-1.5c0.5-0.4,1-0.6,1.6-0.6h19.6
				c1.7,0,2.6,0.6,2.6,1.7c0,1.3-0.9,1.9-2.6,1.9H340.4z"/>
			<path class="st0" d="M399.3,321.4v-30h-6.6c-1.6,0-2.3-0.6-2.3-1.8c0-1.2,0.7-1.8,2.1-1.8h17.3c1.5,0,2.2,0.6,2.2,1.7
				c0,1.3-0.7,1.9-2.2,1.9H403v30h6.5c1.7,0,2.5,0.6,2.5,1.8c0,1.2-0.8,1.8-2.5,1.8h-17.1c-1.4,0-2-0.6-2-1.7c0-1.3,0.7-1.9,2-1.9
				H399.3z"/>
			<path class="st0" d="M459.1,308.3l8,14.3c0.3,0.6,0.5,1.1,0.5,1.6c0,1.1-0.6,1.6-1.7,1.6c-0.8,0-1.5-0.5-2-1.4l-8.6-15.4h-10.4
				v14.6c0,1.4-0.6,2.1-1.9,2.1c-1.3,0-1.9-0.7-1.9-2.1v-33.8c0-0.8,0.1-1.3,0.4-1.6c0.3-0.3,0.8-0.4,1.5-0.4h13.7
				c3.1,0,5.6,1,7.3,3c1.6,1.9,2.4,4.4,2.4,7.6c0,2.9-0.5,5.1-1.6,6.5C463.8,306.3,461.8,307.4,459.1,308.3z M444.8,305.4h10.2
				c5.1,0,7.6-2.3,7.6-7c0-2-0.4-3.7-1.3-4.9c-1-1.4-2.5-2.1-4.4-2.1h-12.1V305.4z"/>
			<path class="st0" d="M517,314.2h-14.8l-2.1,10.4c-0.1,0.7-0.7,1.1-1.6,1.1c-1.3,0-1.9-0.5-1.8-1.5c0.1-0.7,1-5.6,2.8-14.7
				c1.7-8.3,2.8-13.7,3.4-16.3c0.9-4.1,3.1-6.2,6.8-6.2c3.7,0,6,2.1,6.8,6.2c1.1,5.3,2.3,10.6,3.4,16c1.9,9.1,2.9,14,2.9,14.7
				c0,1.2-0.6,1.9-1.9,1.9c-1,0-1.6-0.4-1.8-1.3L517,314.2z M502.8,310.6h13.4l-3-15.3c-0.6-3.1-1.8-4.6-3.7-4.6
				c-1.1,0-2,0.4-2.6,1.3c-0.5,0.7-0.9,1.9-1.2,3.6L502.8,310.6z"/>
		</g>
		<g>
			<rect x="568" y="287.9" class="st0" width="2.5" height="36.9"/>
		</g>
	</g>
	<g>
		<path class="st0" d="M216.9,145c-32.2,0-58.3,26.1-58.3,58.3c0,32.2,26.1,58.3,58.3,58.3c32.2,0,58.3-26.1,58.3-58.3
			C275.2,171.1,249.1,145,216.9,145z M240.1,208h-18.6v18.6c0,2.6-2.1,4.6-4.6,4.6s-4.6-2.1-4.6-4.6V208h-18.6
			c-2.6,0-4.6-2.1-4.6-4.6s2.1-4.6,4.6-4.6h18.6v-18.6c0-2.6,2.1-4.6,4.6-4.6s4.6,2.1,4.6,4.6v18.6h18.6c2.6,0,4.6,2.1,4.6,4.6
			S242.7,208,240.1,208z"/>
	</g>
	<g>
		<polygon class="st0" points="72.1,229.4 75.8,229.4 99.1,176.6 95.5,176.6 		"/>
		<polygon class="st0" points="112.1,176.6 108.5,176.6 85.1,229.4 88.8,229.4 		"/>
		<polygon class="st0" points="63.8,189.4 63.8,197.6 73.1,176.6 69.5,176.6 		"/>
		<polygon class="st0" points="86.1,176.6 82.5,176.6 63.8,218.8 63.8,226.9 		"/>
		<polygon class="st0" points="145.9,217.8 145.9,209.6 137.2,229.4 140.8,229.4 		"/>
		<polygon class="st0" points="124.1,229.4 127.8,229.4 145.9,188.4 145.9,180.3 		"/>
		<polygon class="st0" points="138.1,176.6 134.5,176.6 111.1,229.4 114.8,229.4 		"/>
		<polygon class="st0" points="125.1,176.6 121.5,176.6 98.1,229.4 101.8,229.4 		"/>
	</g>
</g>
</svg>
