<?xml version="1.0" encoding="utf-8"?>
<!-- Generator: Adobe Illustrator 22.1.0, SVG Export Plug-In . SVG Version: 6.00 Build 0)  -->
<svg version="1.1" id="Layer_1" xmlns="http://www.w3.org/2000/svg" xmlns:xlink="http://www.w3.org/1999/xlink" x="0px" y="0px"
	 viewBox="0 0 103.7 103.7" style="enable-background:new 0 0 103.7 103.7;" xml:space="preserve">
<style type="text/css">
	.st0{fill:#27A5BD;}
</style>
<g>
	<path class="st0" d="M51.9,0C23.2,0,0,23.2,0,51.9s23.2,51.9,51.9,51.9c28.6,0,51.9-23.2,51.9-51.9S80.5,0,51.9,0z M51.9,98
		C26.4,98,5.8,77.3,5.8,51.9S26.4,5.8,51.9,5.8C77.3,5.8,98,26.4,98,51.9S77.3,98,51.9,98z"/>
	<g>
		<path class="st0" d="M30.4,77.7l-3.8-11.3l40.4-13.2L26.7,38.9l3.8-11.3L81,47.2v11.9L30.4,77.7z"/>
	</g>
</g>
</svg>
